<svg width="26" height="24" viewBox="0 0 26 24" fill="none" xmlns="http://www.w3.org/2000/svg">
<path d="M1.91139 4.03798H25L21.3544 16.1899H5.55696L1.91139 4.03798ZM1.91139 4.03798L1 1M11.6329 20.443C11.6329 20.9265 11.4409 21.3901 11.099 21.7319C10.7572 22.0738 10.2936 22.2658 9.81013 22.2658C9.32669 22.2658 8.86306 22.0738 8.52122 21.7319C8.17938 21.3901 7.98734 20.9265 7.98734 20.443M18.924 20.443C18.924 20.9265 18.732 21.3901 18.3902 21.7319C18.0483 22.0738 17.5847 22.2658 17.1013 22.2658C16.6178 22.2658 16.1542 22.0738 15.8124 21.7319C15.4705 21.3901 15.2785 20.9265 15.2785 20.443" stroke="#1B4B66" stroke-width="2" stroke-linecap="round" stroke-linejoin="round"/>
</svg>
