<svg width="98" height="26" viewBox="0 0 98 26" fill="none" xmlns="http://www.w3.org/2000/svg">
<path d="M7.46851 22.8144C5.33465 22.8144 3.58245 22.3113 2.21193 21.3051C0.8414 20.2815 0.104091 18.8242 0 16.9333H5.43874C5.49078 17.5752 5.68162 18.0436 6.01124 18.3385C6.34086 18.6334 6.76589 18.7809 7.28635 18.7809C7.75476 18.7809 8.13642 18.6681 8.43134 18.4426C8.74362 18.1997 8.89975 17.8701 8.89975 17.4537C8.89975 16.9159 8.6482 16.4996 8.1451 16.2046C7.64199 15.9097 6.82661 15.5801 5.69896 15.2158C4.50192 14.8168 3.53041 14.4351 2.78443 14.0708C2.05579 13.6891 1.4139 13.1426 0.858748 12.4313C0.320946 11.7027 0.0520453 10.7572 0.0520453 9.59487C0.0520453 8.41518 0.346969 7.40897 0.936816 6.57624C1.52666 5.72617 2.34204 5.08428 3.38295 4.65057C4.42385 4.21686 5.60355 4 6.92203 4C9.05589 4 10.756 4.5031 12.0225 5.50931C13.3063 6.49818 13.9915 7.89473 14.0783 9.69896H8.53544C8.51809 9.14381 8.3446 8.72745 8.01498 8.44988C7.70271 8.1723 7.29502 8.03351 6.79192 8.03351C6.41025 8.03351 6.09798 8.14628 5.8551 8.37181C5.61222 8.59734 5.49078 8.91828 5.49078 9.33465C5.49078 9.68162 5.6209 9.98521 5.88112 10.2454C6.1587 10.4883 6.49699 10.7052 6.89601 10.896C7.29502 11.0695 7.88487 11.295 8.66555 11.5726C9.8279 11.9716 10.7821 12.3706 11.528 12.7696C12.2914 13.1513 12.9419 13.6978 13.4797 14.4091C14.0349 15.103 14.3125 15.9878 14.3125 17.0634C14.3125 18.1563 14.0349 19.1365 13.4797 20.0039C12.9419 20.8714 12.1526 21.5566 11.1117 22.0597C10.0881 22.5628 8.87373 22.8144 7.46851 22.8144Z" fill="#1B4B66"/>
<path d="M33.1039 4.28625V22.6322H28.0034V15.2678H21.784V22.6322H16.6836V4.28625H21.784V11.1823H28.0034V4.28625H33.1039Z" fill="#1B4B66"/>
<path d="M44.8184 22.8144C43.1009 22.8144 41.5221 22.4154 40.0822 21.6173C38.6423 20.802 37.4973 19.683 36.6472 18.2604C35.8145 16.8205 35.3981 15.1984 35.3981 13.3942C35.3981 11.5899 35.8145 9.97654 36.6472 8.55397C37.4973 7.11405 38.6423 5.99507 40.0822 5.19704C41.5221 4.39901 43.1009 4 44.8184 4C46.5532 4 48.1319 4.39901 49.5545 5.19704C50.9944 5.99507 52.1307 7.11405 52.9634 8.55397C53.7962 9.97654 54.2125 11.5899 54.2125 13.3942C54.2125 15.1984 53.7962 16.8205 52.9634 18.2604C52.1307 19.683 50.9944 20.802 49.5545 21.6173C48.1146 22.4154 46.5358 22.8144 44.8184 22.8144ZM44.8184 18.0783C46.1195 18.0783 47.143 17.6532 47.889 16.8032C48.6524 15.9531 49.034 14.8168 49.034 13.3942C49.034 11.9369 48.6524 10.7919 47.889 9.95919C47.143 9.10912 46.1195 8.68408 44.8184 8.68408C43.4999 8.68408 42.4676 9.10912 41.7217 9.95919C40.9757 10.7919 40.6027 11.9369 40.6027 13.3942C40.6027 14.8341 40.9757 15.9791 41.7217 16.8292C42.4676 17.6619 43.4999 18.0783 44.8184 18.0783Z" fill="#1B4B66"/>
<path d="M71 10.4016C71 11.5119 70.7398 12.5268 70.2193 13.4462C69.7162 14.3483 68.9442 15.077 67.9033 15.6321C66.8798 16.1699 65.622 16.4388 64.13 16.4388H61.6058V22.6322H56.5054V4.28625H64.13C65.6046 4.28625 66.8537 4.54648 67.8773 5.06693C68.9182 5.58738 69.6989 6.30734 70.2193 7.22681C70.7398 8.14628 71 9.20453 71 10.4016ZM63.6356 12.3793C65.0755 12.3793 65.7955 11.7201 65.7955 10.4016C65.7955 9.06575 65.0755 8.39783 63.6356 8.39783H61.6058V12.3793H63.6356Z" fill="#1B4B66"/>
<path d="M87.8112 9.81488V25M87.8112 9.81488L80.9197 9.39414M87.8112 9.81488L90.6502 23.2724M87.8112 25L75 24.0907L77.3855 9.17838L80.9197 9.39414M87.8112 25L89.2249 24.0907L90.7269 23.6361L90.6502 23.2724M80.1245 10.997C79.241 18.2713 84.8956 18.3622 84.8956 11.2697M80.9197 9.39414L81.5382 4.99565L92.6707 5.54123M92.6707 5.54123L93.2892 23.2724M92.6707 5.54123L97 20.8173L94.9679 21.5447L93.2892 23.2724M93.2892 23.2724H90.6502M84.6305 6.26866C84.1004 0.903837 89.795 -2.24228 89.5783 6.26866" stroke="#1B4B66" stroke-linejoin="round"/>
</svg>
