<svg width="32" height="32" viewBox="0 0 32 32" fill="none" xmlns="http://www.w3.org/2000/svg">
<rect width="32" height="32" fill="#F4F4F4"/>
<path d="M20.7564 19.5349L20.0205 21.0478L18.6712 21.9303L19.7752 22.6524M20.7564 19.5349L21.6151 21.0478L23.087 21.9303L21.6151 22.8128L20.8791 24.3258L20.0205 22.8128L19.7752 22.6524M20.7564 19.5349C21.1489 19.2323 21.2471 16.8033 21.2471 15.6266C18.7939 14.0128 18.058 12.4747 18.058 11.9704M12.0477 23.3172C13.4378 24.7231 16.9295 26.5584 19.7752 22.6524M10.821 21.2999C10.7257 21.0063 10.6044 20.3125 10.4919 19.787M17.9353 11.9704C18.3033 13.9876 12.0477 13.9876 10.2078 16.1309C10.1552 16.6173 10.1543 17.1328 10.1866 17.6438M10.4919 19.787C10.3569 19.1565 10.2348 18.4051 10.1866 17.6438M10.4919 19.787C8.98108 19.9131 8.20716 16.1309 10.1866 17.6438M10.1866 17.6438C9.13061 15.3744 8.24512 10.4575 13.1515 8.94456C12.9061 6.67517 18.0087 6.09525 17.8125 8.81848C19.8978 9.28191 23.5042 11.5949 21.2471 17.1394M12.1702 17.2655C12.6199 16.9293 13.6912 16.4586 14.3781 17.2655M16.9539 17.2655C17.281 16.9713 18.1805 16.5595 19.1617 17.2655M14.3781 22.4346C14.9505 22.6867 16.267 23.0398 16.9539 22.4346" stroke="#1B4B66" stroke-linejoin="round"/>
<path d="M20.7398 19.8338C22.1146 20.0682 23.1211 16.7335 21.188 17.9335" stroke="#1B4B66" stroke-linejoin="round"/>
<path d="M10.3386 22.0453L9.43555 22.7226L10.3386 23.287L10.9029 24.3028L11.4673 23.287L12.3703 22.7226L11.4673 22.0453L10.9029 21.0294L10.3386 22.0453Z" stroke="#1B4B66" stroke-linejoin="round"/>
</svg>
