<svg width="32" height="32" viewBox="0 0 32 32" fill="none" xmlns="http://www.w3.org/2000/svg">
<rect width="32" height="32" fill="#F4F4F4"/>
<path d="M21.6835 22.035H10.6317C10.466 22.0486 10.3111 22.0508 10.1665 22.0437M21.6835 22.035C22.0439 22.035 22.7096 21.9534 23.1959 21.6735M21.6835 22.035C22.4979 26.0267 25.9879 26.0267 23.1959 21.6735M8.77035 21.5292C8.65569 21.424 8.57934 21.3201 8.53768 21.2367C7.8862 19.853 7.18055 17.9991 6.90915 17.2451C4.81635 15.809 5.777 13.177 7.25799 12.9346M8.77035 21.5292C9.02826 21.766 9.47997 22.0099 10.1665 22.0437M8.77035 21.5292C6.32731 24.8292 9.35202 27.0911 10.1665 22.0437M23.1959 21.6735C23.3897 21.5619 23.5551 21.4188 23.6612 21.2367C24.0335 20.5981 24.8246 18.3096 25.1736 17.2451C27.3791 16.2013 26.2534 12.8829 24.5919 12.9406M7.25799 12.9346C8.24689 12.7728 9.46779 13.6764 10.1665 16.7129C12.1054 15.7815 17.1697 14.4776 21.9162 16.7129C22.6815 13.9487 23.7119 12.9711 24.5919 12.9406M7.25799 12.9346L7.37433 10.3263C7.64578 9.26191 8.67728 7.10644 10.6317 7H21.2182C22.1489 7.13305 24.1266 7.9846 24.5919 10.3263V12.9406" stroke="#1B4B66" stroke-linejoin="round"/>
</svg>
