<svg width="32" height="32" viewBox="0 0 32 32" fill="none" xmlns="http://www.w3.org/2000/svg">
<rect width="32" height="32" fill="#F4F4F4"/>
<path d="M11.2472 14.3277C10.5284 14.376 9.90365 11.435 10.1231 8.64486C10.1231 7.05797 12.2463 7.18003 12.2463 8.64485C12.1222 12.7682 11.7548 14.2936 11.2472 14.3277ZM11.2472 14.3277V17.1899M11.2472 17.1899C9.49869 18.6548 8 19.314 8 21.4624L8.37467 23.6597C8.4163 23.8225 8.59947 24.1968 8.99912 24.3922C9.39877 24.5875 12.0798 24.4735 13.3703 24.3922C13.4952 24.3515 13.7949 24.148 13.9947 23.6597L14.3694 21.4624C14.4943 19.3872 12.4961 18.2885 11.2472 17.1899ZM9.62358 22.0728V23.1714M11.1223 20.8521V23.1714M12.7458 21.9507V23.1714" stroke="#1B4B66" stroke-linejoin="round"/>
<path d="M20.2472 14.3277C19.5284 14.376 18.9037 11.435 19.1231 8.64486C19.1231 7.05797 21.2463 7.18003 21.2463 8.64485C21.1222 12.7682 20.7548 14.2936 20.2472 14.3277ZM20.2472 14.3277V17.1899M20.2472 17.1899C18.4987 18.6548 17 19.314 17 21.4624L17.3747 23.6597C17.4163 23.8225 17.5995 24.1968 17.9991 24.3922C18.3988 24.5875 21.0798 24.4735 22.3703 24.3922C22.4952 24.3515 22.7949 24.148 22.9947 23.6597L23.3694 21.4624C23.4943 19.3872 21.4961 18.2885 20.2472 17.1899ZM18.6236 22.0728V23.1714M20.1223 20.8521V23.1714M21.7458 21.9507V23.1714" stroke="#1B4B66" stroke-linejoin="round"/>
</svg>
