<svg width="32" height="32" viewBox="0 0 32 32" fill="none" xmlns="http://www.w3.org/2000/svg">
<rect width="32" height="32" fill="#F4F4F4"/>
<path d="M15.6127 13.5028C17.9664 11.5584 18.9989 10.1613 19.2278 9.17317M15.6127 13.5028C14.1634 12.337 12.4103 10.5703 12.0246 9.17317M15.6127 13.5028L14.5303 14.044M15.6127 13.5028L16.6952 14.0121M19.2278 9.17317C19.6446 7.3742 17.3982 6.93073 15.6127 7.00836C12.4525 6.93965 11.6742 7.90387 12.0246 9.17317M19.2278 9.17317C19.955 9.60613 19.8869 10.1954 19.762 10.436L18.6796 14.946L16.6952 14.0121M19.2278 9.17317L21.0248 9.35357C21.5059 9.41371 22.6123 9.64221 23.1896 10.0752V24.6876C23.2497 25.0484 23.1896 25.77 22.468 25.77H16.6952M12.0246 9.17317C11.8624 9.17317 11.7331 9.24346 11.6309 9.35357M11.6309 9.35357C11.3796 9.62454 11.2926 10.1367 11.2832 10.436L12.7264 14.946L14.5303 14.044M11.6309 9.35357C11.4762 9.20925 10.7333 9.29344 10.3811 9.35357C9.65952 9.35357 8.51702 9.83464 8.03596 10.0752V25.0484C7.89164 25.337 8.21636 25.6497 8.39677 25.77H14.5303M13.8087 9.53397C14.5303 9.29344 16.2622 8.95669 17.4168 9.53397M14.5303 14.044V25.77M14.5303 25.77H16.6952M16.6952 25.77V14.0121" stroke="#1B4B66" stroke-linejoin="round"/>
<path d="M15.6537 23.2444C15.6537 23.2671 15.6352 23.2856 15.6125 23.2856C15.5897 23.2856 15.5713 23.2671 15.5713 23.2444C15.5713 23.2216 15.5897 23.2032 15.6125 23.2032C15.6352 23.2032 15.6537 23.2216 15.6537 23.2444Z" fill="#D9D9D9" stroke="#1B4B66"/>
<path d="M15.6537 19.6364C15.6537 19.6591 15.6352 19.6776 15.6125 19.6776C15.5897 19.6776 15.5713 19.6591 15.5713 19.6364C15.5713 19.6136 15.5897 19.5952 15.6125 19.5952C15.6352 19.5952 15.6537 19.6136 15.6537 19.6364Z" fill="#D9D9D9" stroke="#1B4B66"/>
<path d="M15.6537 16.0284C15.6537 16.0511 15.6352 16.0696 15.6125 16.0696C15.5897 16.0696 15.5713 16.0511 15.5713 16.0284C15.5713 16.0056 15.5897 15.9872 15.6125 15.9872C15.6352 15.9872 15.6537 16.0056 15.6537 16.0284Z" fill="#D9D9D9" stroke="#1B4B66"/>
</svg>
