<svg width="32" height="32" viewBox="0 0 32 32" fill="none" xmlns="http://www.w3.org/2000/svg">
<rect width="32" height="32" fill="#F4F4F4"/>
<path d="M4.00219 21.187C3.94614 18.7538 4.9438 13.7764 9.38281 13.3328M4.00219 21.187C4.17035 19.5546 5.28011 16.3636 8.37397 16.6593M4.00219 21.187C4.00219 21.5013 4.3385 21.626 4.50665 21.649H14.0909M9.38281 13.3328H16.1086M9.38281 13.3328C8.03764 11.7066 8.82232 11.3 9.38281 11.3H14.6794C15.8228 11.5218 16.1086 12.7476 16.1086 13.3328M16.1086 13.3328C15.1278 15.3041 13.99 19.4129 17.2856 20.0782C18.8269 20.4478 21.7583 20.4293 21.1529 17.3985C20.9848 15.6121 20.4635 11.8359 19.7237 11.0228M10.3917 16.6593C11.6528 16.5669 14.1581 17.4355 14.0909 21.649M14.0909 21.649H21.8255M21.8255 21.649C21.8535 20.0474 22.3636 16.6593 24.1795 15.9201M21.8255 21.649C23.591 28.5792 32.0823 23.035 26.4495 18.0842M21.8255 21.649C22.1923 20.8004 22.7109 20.1344 23.2972 19.6162M24.1795 15.9201C25.0203 15.5197 26.8867 15.3657 27.6265 17.9529C27.3088 17.9529 26.9026 17.9909 26.4495 18.0842M24.1795 15.9201L23.1707 13.9797M26.4495 18.0842C25.9035 18.1966 25.2893 18.3892 24.6798 18.6922M23.8432 20.5402C23.2547 26.1767 29.7619 21.7599 25.5247 19.6162L25.0321 19.4314M23.2972 19.6162L24.5158 21.649C25.0203 22.6654 26.2981 22.2958 25.6928 20.8174L25.0321 19.4314M23.2972 19.6162C23.7323 19.2316 24.2046 18.9283 24.6798 18.6922M24.6798 18.6922L25.0321 19.4314M7.3651 21.7414C7.78546 23.4971 10.3917 24.5135 10.9802 21.7414M6.01995 21.7414C6.01995 24.6983 11.2324 27.2855 12.4094 21.7414M19.7237 11.0228C20.2396 11.0743 21.0852 11.1374 21.8255 11.1446M19.7237 11.0228C19.689 10.8955 19.6637 10.7718 19.6461 10.6532M19.7237 9.45197C20.5534 9.01293 21.2625 8.73719 21.8255 8.5701M19.7237 9.45197C19.6541 9.63043 19.5615 10.0832 19.6461 10.6532M19.7237 9.45197L19.0511 8.34315M21.8255 8.5701C22.4948 8.37147 22.9576 8.32642 23.1707 8.34315C23.591 8.71276 23.3668 10.9612 23.1707 11.0228C22.9328 11.1208 22.4122 11.1503 21.8255 11.1446M21.8255 8.5701V11.1446M21.8255 11.1446L22.5822 12.686M19.6461 10.6532L17.5378 11.1446M19.0511 8.34315H17.3697C17.1455 8.37395 16.7139 8.32467 16.7812 7.88114V7.23433C16.9472 7.08033 17.5159 6.84624 18.4626 7.14193C18.6631 7.17273 19.1804 7.45609 19.6461 8.34315C19.6439 8.49715 19.5219 8.71275 19.0511 8.34315Z" stroke="#1B4B66" stroke-linecap="round" stroke-linejoin="round"/>
</svg>
