<svg width="32" height="32" viewBox="0 0 32 32" fill="none" xmlns="http://www.w3.org/2000/svg">
<rect width="32" height="32" fill="#F4F4F4"/>
<path d="M9.69008 18.932C9.69008 19.992 8.90506 20.7826 8.01814 20.7826C7.13122 20.7826 6.34619 19.992 6.34619 18.932C6.34619 17.8721 7.13122 17.0815 8.01814 17.0815C8.90506 17.0815 9.69008 17.8721 9.69008 18.932Z" stroke="#1B4B66"/>
<path d="M25.3283 18.932C25.3283 19.992 24.5432 20.7826 23.6563 20.7826C22.7694 20.7826 21.9844 19.992 21.9844 18.932C21.9844 17.8721 22.7694 17.0815 23.6563 17.0815C24.5432 17.0815 25.3283 17.8721 25.3283 18.932Z" stroke="#1B4B66"/>
<path d="M10.0814 19.5197H21.4842M5.95475 19.5197H4.65158C4.43439 19.5589 4 19.4492 4 18.697V15.1712C4 14.8186 4.19548 14.0899 4.97738 13.9959H6.93213C7.9095 12.6639 10.8416 10 14.7511 10C20.3982 10 21.9186 14.9361 24.5249 14.466H26.5882C26.914 14.466 27.6525 14.7951 28 16.1114V18.9321C28 19.1279 27.8914 19.5197 27.457 19.5197H25.7195M10.0814 12.7031C10.4434 13.2908 11.5584 14.5365 13.1222 14.8186H14.0995M21.4842 14.8186H14.0995M14.0995 14.8186V11.6454" stroke="#1B4B66" stroke-linecap="round" stroke-linejoin="round"/>
</svg>
