<svg width="32" height="32" viewBox="0 0 32 32" fill="none" xmlns="http://www.w3.org/2000/svg">
<rect width="32" height="32" fill="#F4F4F4"/>
<path d="M11.4443 11.2287L12.4443 7.78427C12.5184 7.52501 12.7777 7.00649 13.2221 7.00649H18.4443C18.6295 6.96946 19.0666 7.07316 19.3332 7.78427C19.5999 8.49538 20.1851 10.2287 20.4443 11.0065M13.2221 16.2287H15.9999V12.7843M15.9999 11.5621V12.2287M18.5554 13.4509L19.111 12.8954M19.7777 16.1176H20.4443M12.9999 13.4509L12.5554 13.0065M11.4443 16.2287H11.9999M12.6666 19.4509L13.2221 19.0065M15.9999 20.7843V20.1176M18.6666 18.8954L19.2221 19.3398M11.4443 21.2287L12.3332 24.5621C12.4443 24.7843 12.7332 25.2509 12.9999 25.3398H18.6666C18.8888 25.3398 19.3554 25.1843 19.4443 24.5621L20.4443 21.3398" stroke="#1B4B66" stroke-linecap="round" stroke-linejoin="round"/>
<circle cx="5.5" cy="5.5" r="5" transform="matrix(-1 0 0 1 21.5 10.701)" stroke="#1B4B66"/>
<path d="M9.5 16.2009C9.5 19.6357 12.3929 22.4509 16 22.4509C19.6071 22.4509 22.5 19.6357 22.5 16.2009C22.5 12.7661 19.6071 9.95093 16 9.95093C12.3929 9.95093 9.5 12.7661 9.5 16.2009Z" stroke="#1B4B66"/>
</svg>
