<svg width="32" height="32" viewBox="0 0 32 32" fill="none" xmlns="http://www.w3.org/2000/svg">
<rect width="32" height="32" fill="#F4F4F4"/>
<path d="M13.1119 9.07388C12.6551 10.8804 10.1803 12.2829 9 12.7583C9.45688 18.7484 13.7592 21.3552 15.8532 21.9099M13.1119 9.07388C13.9876 9.86623 16.2644 10.9755 18.3661 9.07388M13.1119 9.07388C13.9536 5.74602 18.3661 6.93454 18.3661 9.07388M18.3661 9.07388C18.4422 9.78699 19.3255 11.5222 22.2496 12.7583C22.4019 14.7788 21.3358 19.4377 15.8532 21.9099M15.8532 21.9099V25M15.8532 14.8976C15.3963 13.9468 12.2896 14.3509 15.8532 18.3443C19.6225 14.541 16.767 14.026 15.8532 14.8976ZM15.8532 14.8976C17.0716 14.2241 19.5311 12.5919 19.6225 11.4509M15.8532 14.8976C14.5587 14.0656 11.924 12.2116 11.7413 11.4509M15.8532 25H18.0234M15.8532 25H13.5688" stroke="#1B4B66" stroke-linecap="round" stroke-linejoin="round"/>
</svg>
