<svg width="32" height="32" viewBox="0 0 32 32" fill="none" xmlns="http://www.w3.org/2000/svg">
<rect width="32" height="32" fill="#F4F4F4"/>
<path d="M8.36024 18.7189C4.73908 15.9659 9.63939 11.6504 8.36024 7.65105C10.0992 7.72387 12.158 8.00124 13.7722 8.57944M8.36024 18.7189L11.2138 19.2769M8.36024 18.7189V24.6713C8.58981 24.9194 9.26542 25.2666 10.1314 24.6713C9.86895 22.6872 9.71807 18.8305 11.2138 19.2769M12.1978 16.3007C13.8398 15.1791 14.9475 14.1916 15.6298 13.3245M11.2138 19.2769C14.1578 17.7268 19.1627 14.3662 15.6298 13.3245M11.2138 19.2769C12.5586 20.486 15.4647 23.2576 16.3306 24.6713C22.4315 25.2834 32.803 25.4148 25.482 21.0441C20.0699 19.928 19.3811 17.3424 17.4131 7C16.7242 6.99888 15.0317 7.31319 13.7722 8.57944M15.6298 13.3245C17.5341 10.9046 16.1255 9.42235 13.7722 8.57944" stroke="#1B4B66" stroke-linecap="round" stroke-linejoin="round"/>
</svg>
