<svg width="32" height="32" viewBox="0 0 32 32" fill="none" xmlns="http://www.w3.org/2000/svg">
<rect width="32" height="32" fill="#F4F4F4"/>
<path d="M11.0617 13.2892C9.76045 14.7349 7.80864 19.1012 10.4111 25M11.0617 13.2892H14.5315M11.0617 13.2892H10.4111M10.4111 25H8.67618C6.43521 22.4699 3.51473 16.5855 9.76051 13.2892H10.4111M10.4111 25H15.1821M14.5315 13.2892C15.905 14.9518 17.958 19.6217 15.1821 25M14.5315 13.2892H15.1821M15.1821 25H17.134C22.3388 18.0602 18.2906 14.3012 15.6159 13.2892H15.1821M10.4111 13.2892V10.4699H11.0617M15.1821 13.2892V10.4699H11.0617M11.0617 10.4699V7H14.5315V8.08434M14.5315 10.0361V8.51807V8.08434M14.5315 8.08434C16.4833 8.01205 21.0809 8.77831 22.9894 11.5542M7.80864 10.253L9.10985 9.60241M7.80864 8.73494H9.10985M7.80864 7L9.10985 7.6506M24.0737 16.5422C24.7243 16.4699 25.9821 16.0217 25.8086 14.8072" stroke="#1B4B66" stroke-linejoin="round"/>
<circle cx="24.0739" cy="14.5904" r="2.96988" stroke="#1B4B66"/>
</svg>
