<svg width="32" height="32" viewBox="0 0 32 32" fill="none" xmlns="http://www.w3.org/2000/svg">
<rect width="32" height="32" fill="#F4F4F4"/>
<path d="M8.05033 15.5091L8.56543 25.2125C8.65128 25.7232 9.08053 26.7957 10.1107 27H21.4429C22.2155 26.9149 23.7093 26.4382 23.5032 25.2125L24.0183 15.5091M8.05033 15.5091C8.87449 16.5305 10.9692 15.9347 11.9136 15.5091C12.5354 16.2489 13.5637 16.2817 14.489 16.0792M8.05033 15.5091C7.87863 14.743 8.05033 13.1599 10.1107 12.9556M24.0183 15.5091C23.1598 15.9347 21.1338 16.4794 19.8976 15.2538C19.4896 15.6004 18.615 16.0647 17.5796 16.0078M24.0183 15.5091C27.7271 -3.0806 19.8976 6.82706 17.5796 16.0078M10.1107 12.9556C10.1107 12.1385 9.08053 11.7639 8.56543 11.6788M10.1107 12.9556C10.2556 12.7266 10.4299 12.4983 10.6258 12.2978M14.489 16.0792C14.7111 16.0305 14.9272 15.9684 15.1303 15.8992M14.489 16.0792C13.4424 10.931 11.7067 11.1912 10.6258 12.2978M15.1303 15.8992C15.4831 15.779 15.7968 15.6376 16.0343 15.5091C16.5638 15.8372 17.0897 15.9809 17.5796 16.0078M15.1303 15.8992C14.9711 15.5087 14.7946 15.0153 14.641 14.4877M18.8673 10.9127C18.8673 10.2999 18.0088 10.1467 17.5796 10.1467C17.4737 10.0417 17.367 9.95743 17.2602 9.89132M15.2617 10.3527C15.1602 10.4567 15.0732 10.5614 15.0041 10.6574C13.9189 10.9648 14.1742 12.8843 14.641 14.4877M15.2617 10.3527C14.5749 10.0286 13.5103 9.27847 14.7466 8.86991L17.0645 8.3592C17.4525 8.3592 18.0348 8.66562 17.2602 9.89132M15.2617 10.3527C15.7258 9.87715 16.4947 9.41766 17.2602 9.89132M14.641 14.4877C15.0196 14.4877 15.8798 14.4366 16.2919 14.2323C16.807 13.977 17.5796 12.9556 18.0947 13.4663M21.7004 9.12524C21.7862 8.78478 22.1639 8.15494 22.9881 8.3592C23.3315 8.44431 24.0183 8.41025 24.0183 7.59312M20.6702 11.9341C20.756 11.4234 21.2368 10.5552 22.473 11.1681C22.8164 11.1681 23.5547 10.9638 23.7608 10.1467M19.8976 14.6473C19.9834 14.1685 20.4641 13.3641 21.7004 13.977C22.0438 13.977 22.7306 13.7727 22.7306 12.9556M10.6258 12.2978C10.2824 11.751 9.85314 10.6574 10.8833 10.6574C10.7116 9.72108 10.7288 7.95064 12.1711 8.3592C12.1711 7.59313 12.4286 6.16314 13.4588 6.57171C13.6288 5.97588 14.2011 4.98852 15.1303 5.80565C15.6033 5.38006 16.6009 4.93745 16.807 6.57171C17.3221 6.57171 18.3522 6.82706 18.3522 7.84847C18.3522 8.86989 18.3522 8.4443 18.3522 8.10383C19.039 8.20506 20.2066 8.79656 19.3824 10.3527M9.85314 21.3822H12.6862M9.85314 23.1697H13.7164M9.85314 24.7018H14.2315M15.5192 24.7018H17.0645" stroke="#1B4B66" stroke-linejoin="round"/>
</svg>
