<svg width="32" height="32" viewBox="0 0 32 32" fill="none" xmlns="http://www.w3.org/2000/svg">
<rect width="32" height="32" fill="#F4F4F4"/>
<path d="M15.8491 16.4839H13.5511V18.0057C2.98023 29.166 29.4063 28.1514 18.1471 18.0057V16.4839H15.8491ZM15.8491 16.4839V15.4693M15.8491 8.36733V10.0583M15.8491 10.0583C15.0831 9.15644 14.0107 7.08221 15.8491 6C16.6151 6.45092 17.6875 7.89386 15.8491 10.0583ZM15.8491 10.0583V12.5947M15.8491 12.5947C16.5383 11.5238 18.4681 9.44954 20.6741 9.72009C20.5214 10.6783 19.3426 12.5947 15.8491 12.5947ZM15.8491 12.5947C15.3893 11.5238 13.8262 9.44954 11.2525 9.72009C11.1763 10.6219 11.9891 12.4594 15.8491 12.5947ZM15.8491 12.5947V15.4693M15.8491 15.4693C16.4617 14.2857 18.3302 12.0874 20.9039 12.7638C20.1384 13.8911 18.0557 16.0104 15.8491 15.4693ZM15.8491 15.4693C14.1637 15.1337 10.8848 14.1228 11.2525 12.7638C12.4785 12.8202 15.1143 13.4402 15.8491 15.4693Z" stroke="#1B4B66" stroke-linejoin="round"/>
</svg>
