<svg width="32" height="32" viewBox="0 0 32 32" fill="none" xmlns="http://www.w3.org/2000/svg">
<rect width="32" height="32" fill="#F4F4F4"/>
<path d="M5.51991 20.8265H26.2017M5.51991 20.8265V8.13267C5.95917 7.08729 6.67906 6.9504 6.9841 7.01262H25.1035C26.1284 7.16196 26.2627 8.07044 26.2017 8.50602V20.8265M5.51991 20.8265L4.23874 22.6933C3.99471 23.0666 3.72627 23.8507 4.60479 24H11.7428M26.2017 20.8265L27.8489 22.6933C28.2882 23.5893 27.6659 23.9378 27.2998 24H19.7959M11.7428 24L12.4749 22.3199H19.0638L19.7959 24M11.7428 24H19.7959M6.9841 19.1465V8.50602H24.7375V19.1465H6.9841Z" stroke="#1B4B66" stroke-linejoin="round"/>
</svg>
