<svg width="32" height="32" viewBox="0 0 32 32" fill="none" xmlns="http://www.w3.org/2000/svg">
<rect width="32" height="32" fill="#F4F4F4"/>
<path d="M6.26482 17.8423C6.01262 16.7007 5.7163 14.1556 6.54853 13.108M6.26482 17.8423V19.9576C7.3051 20.0919 9.74504 20.3403 11.1825 20.2598C11.2456 19.9911 11.4095 19.4539 11.5608 19.4539C14.1143 19.4539 14.8709 20.6627 18.2754 20.9649C20.1984 21.1327 24.6307 20.7835 26.9761 18.0437C27.0076 18.0437 27.0328 17.943 26.8815 17.5401M6.26482 17.8423C6.11077 18.0063 8.64873 18.489 11.1825 18.9187M6.54853 13.108C8.25082 14.0482 12.2985 15.1427 14.8708 12M6.54853 13.108C8.40844 13.4774 12.6768 13.7728 14.8708 12M14.8708 12C16.1856 13.2898 17.4827 14.1967 18.7584 14.8204M26.8815 17.5401C26.8059 16.2508 25.7151 15.9956 25.1792 16.0291C23.1162 16.1314 20.9694 15.9014 18.7584 14.8204M26.8815 17.5401C25.2423 19.1517 20.4695 21.7908 14.4926 19.4539C13.5809 19.3137 12.3822 19.1221 11.1825 18.9187M11.1825 18.9187C11.4663 18.1188 13.1875 16.8239 17.8026 18.0437C18.2191 17.4058 18.9934 15.868 18.7584 14.8204M14.7763 13.3095L15.6274 12.4029C15.785 12.3022 16.0625 12.2216 15.9111 12.7051L15.06 13.6117C14.9024 13.6788 14.625 13.7124 14.7763 13.3095ZM16.1949 14.4175L16.9514 13.3095C17.0775 13.2423 17.3108 13.2087 17.2352 13.6117L16.5731 14.6189C16.4471 14.6861 16.1949 14.7398 16.1949 14.4175ZM17.6134 15.324L18.1809 14.216C18.2754 14.1153 18.5592 14.0146 18.4646 14.4175C18.353 14.893 18.4331 14.6861 18.4646 14.5182L17.9917 15.5255C17.8656 15.5927 17.6134 15.6464 17.6134 15.324Z" stroke="#1B4B66" stroke-linejoin="round"/>
</svg>
