<svg width="32" height="32" viewBox="0 0 32 32" fill="none" xmlns="http://www.w3.org/2000/svg">
<rect width="32" height="32" fill="#F4F4F4"/>
<path d="M11.3525 11.0697L12.3149 7.75477C12.3862 7.50526 12.6357 7.00625 13.0634 7.00625H18.0892C18.2675 6.9706 18.6881 7.07041 18.9447 7.75477C19.2013 8.43913 19.7645 10.1073 20.014 10.8558M13.0634 15.8816H15.7367V12.5667M15.7367 11.3905V12.032M18.1962 13.2083L18.7308 12.6736M19.3724 15.7747H20.014M12.8496 13.2083L12.4219 12.7806M11.3525 15.8816H11.8872M12.5288 18.9826L13.0634 18.5549M15.7367 20.2658V19.6242M18.3031 18.448L18.8378 18.8757M11.3525 20.6935L12.208 23.9015C12.3149 24.1153 12.5929 24.5645 12.8496 24.65H18.3031C18.517 24.65 18.9661 24.5003 19.0516 23.9015L20.014 20.8005" stroke="#1B4B66" stroke-linecap="round" stroke-linejoin="round"/>
<circle cx="5.29312" cy="5.29312" r="4.79312" transform="matrix(-1 0 0 1 21.0298 10.5617)" stroke="#1B4B66"/>
<path d="M9.50023 15.8548C9.50023 19.1494 12.2752 21.8509 15.7369 21.8509C19.1987 21.8509 21.9736 19.1494 21.9736 15.8548C21.9736 12.5602 19.1987 9.8587 15.7369 9.8587C12.2752 9.8587 9.50023 12.5602 9.50023 15.8548Z" stroke="#1B4B66"/>
</svg>
