<svg width="32" height="32" viewBox="0 0 32 32" fill="none" xmlns="http://www.w3.org/2000/svg">
<rect width="32" height="32" fill="#F4F4F4"/>
<path d="M10.1547 17.5992H9V14.5492M10.1547 17.5992H11.3095V14.5492M10.1547 17.5992V19.8867M9 14.5492V10.0696C9.25194 7.32459 12.1843 6.89252 13.6189 7.0196C14.4587 6.8671 14.6687 7.7821 14.6687 8.25866V11.6899C14.3328 13.1386 13.129 12.7383 12.5692 12.3571C11.6454 11.2896 11.3445 12.1029 11.3095 12.643V14.5492M9 14.5492H11.3095" stroke="#1B4B66" stroke-linecap="round" stroke-linejoin="round"/>
<path d="M17.4863 22.4925H16.3315V19.4425M17.4863 22.4925H18.641V19.4425M17.4863 22.4925V24.78M16.3315 19.4425V14.9629C16.5835 12.2179 19.5158 11.7858 20.9505 11.9129C21.7903 11.7604 22.0002 12.6754 22.0002 13.152V16.5832C21.6643 18.0319 20.4606 17.6316 19.9007 17.2504C18.9769 16.1829 18.676 16.9962 18.641 17.5363V19.4425M16.3315 19.4425H18.641" stroke="#1B4B66" stroke-linecap="round" stroke-linejoin="round"/>
</svg>
