<svg width="32" height="32" viewBox="0 0 32 32" fill="none" xmlns="http://www.w3.org/2000/svg">
<rect width="32" height="32" fill="#F4F4F4"/>
<path d="M7.61667 19.1756C6.94803 19.0403 6.6539 17.3628 7.61667 17.1463H8.15149M7.61667 19.1756H17.1106C17.1579 19.1756 17.2024 19.1707 17.2443 19.1614M7.61667 19.1756V23.3694C7.7058 23.9557 8.15149 25.1011 9.22124 24.9928H15.3723C15.7567 24.9629 16.4078 24.7822 16.8338 24.3164M17.2443 19.1614C18.0561 18.9813 17.8735 17.1463 17.1106 17.1463H16.5757M17.2443 19.1614V23.3694C17.2083 23.7702 17.0501 24.08 16.8338 24.3164M8.15149 17.1463C8.41893 15.9288 9.51542 13.5748 11.7619 13.8995C11.8956 14.3956 12.3502 15.3876 13.0991 15.3876C13.8834 15.3215 15.2717 15.4251 16.0409 16.125M8.15149 17.1463H16.5757M16.5757 17.1463C16.5187 16.7133 16.3207 16.3797 16.0409 16.125M16.0409 16.125V14.5759C16.0854 14.125 16.3885 13.2501 17.2443 13.3584L17.5118 13.3584M23.6628 13.3584C24.064 13.4035 24.8663 13.7101 24.8663 14.5759L25 23.5047C24.9554 23.9106 24.6256 24.7764 23.6628 24.9928H17.6455C17.461 24.9477 17.0403 24.7493 16.8338 24.3164M23.6628 13.3584L17.5118 13.3584M23.6628 13.3584V11.8702C23.6628 11.3291 23.3954 11.284 23.2617 11.3291H22.7268M17.5118 13.3584V11.8702C17.4672 11.6448 17.5118 11.2209 18.0466 11.3291H18.4478M18.4478 11.3291V10.2468C18.4478 10.0664 18.5548 9.70569 18.9827 9.70569H19.1164M18.4478 11.3291H22.7268M22.1919 9.70569C22.3256 9.70569 22.6198 9.81392 22.7268 10.2468V11.3291M22.1919 9.70569H19.1164M22.1919 9.70569C21.978 8.40696 22.2811 8.08228 22.4594 8.08228H23.5291V7H19.9187C19.3838 7 19.161 7.63133 19.1164 7.94699V9.70569M10.291 20.799C9.35496 20.799 9.11426 23.153 10.291 23.3694H14.57C15.7467 23.3694 15.3723 20.799 14.57 20.799H10.291ZM17.9129 19.852V16.4699H23.2617V19.852H17.9129Z" stroke="#1B4B66" stroke-linecap="round" stroke-linejoin="round"/>
</svg>
