<svg width="32" height="32" viewBox="0 0 32 32" fill="none" xmlns="http://www.w3.org/2000/svg">
<rect width="32" height="32" fill="#F4F4F4"/>
<circle cx="11.5368" cy="18.9655" r="6.03684" stroke="#1B4B66"/>
<path d="M6.01807 20.7881C9.42459 20.4198 9.3107 16.5935 11.4467 12.9844M12.4645 24.643C14.0297 22.4334 15.8614 16.6672 17.5554 16.6672M17.7396 11.3272L18.384 12.9844L17.7396 14.3655V24.1247C17.7396 24.7876 18.4761 25.0761 18.8444 25.1374H22.8954C23.7792 25.1374 24.0002 24.4623 24.0002 24.1247V14.3655L23.2637 12.9844L23.8161 11.3272M17.7396 11.3272H23.8161M17.7396 11.3272V8.93343H19.3968M23.8161 11.3272V8.93343H22.0668M19.0285 20.2578H22.6192M19.3968 8.93343V7M19.3968 8.93343H22.0668M19.3968 7H22.0668M19.3968 7H22.6192H22.0668M22.0668 7V8.93343M20.8699 15.4703C20.3175 16.483 19.4889 16.8513 19.673 18.1403C19.673 19.6134 21.6985 20.3499 21.9747 18.1403C22.0815 17.2861 21.2382 16.391 20.8699 15.4703Z" stroke="#1B4B66" stroke-linecap="round" stroke-linejoin="round"/>
</svg>
