<svg width="32" height="32" viewBox="0 0 32 32" fill="none" xmlns="http://www.w3.org/2000/svg">
<rect width="32" height="32" fill="#F4F4F4"/>
<path d="M14.1763 12.659C15.1648 12.476 17.4275 12.2197 18.5698 12.659" stroke="#1B4B66" stroke-linecap="round" stroke-linejoin="round"/>
<path d="M10.4417 12.1098C3.67569 11.5826 4.62029 16.3569 5.93835 18.81C8.04726 22.6763 14.8352 19.0296 15.3844 14.1968C15.7359 12.5272 12.309 12.2553 10.4417 12.1098Z" stroke="#1B4B66" stroke-linecap="round" stroke-linejoin="round"/>
<path d="M22.5495 12.0402C29.3161 11.514 28.3714 16.2795 27.0533 18.728C24.9442 22.5872 18.1556 18.9473 17.6063 14.1233C17.2548 12.4569 20.6821 12.1855 22.5495 12.0402Z" stroke="#1B4B66" stroke-linecap="round" stroke-linejoin="round"/>
<path d="M15.3848 14.4165C15.8175 14.0849 16.8626 13.6208 17.5815 14.4165" stroke="#1B4B66" stroke-linecap="round" stroke-linejoin="round"/>
</svg>
