<svg width="32" height="32" viewBox="0 0 32 32" fill="none" xmlns="http://www.w3.org/2000/svg">
<rect width="32" height="32" fill="#F4F4F4"/>
<path d="M15.5084 15.348C13.5555 15.348 11.8597 14.1406 11.256 13.5368V7.86688C11.319 6.66989 8.89352 6.76439 8.89352 7.86688V13.5368C8.13753 13.7258 7.42353 14.8231 7.16103 15.348C6.59404 18.057 7.65977 19.6268 8.26352 20.073L9.20851 23.7742C9.26101 24.1417 9.52351 24.6404 10.311 24.6404H15.5084" stroke="#1B4B66" stroke-linecap="round" stroke-linejoin="round"/>
<path d="M15.5872 15.3303C17.54 15.3303 19.2357 14.1248 19.8394 13.522V7.86127C19.7764 6.66622 22.2018 6.76057 22.2018 7.86127V13.522C22.9577 13.7107 23.6717 14.8062 23.9342 15.3303C24.5012 18.0349 23.4355 19.6021 22.8318 20.0476L21.8868 23.7428C21.7296 24.0886 21.5721 24.6398 20.7846 24.6398H15.5872" stroke="#1B4B66" stroke-linecap="round" stroke-linejoin="round"/>
</svg>
