<svg width="32" height="32" viewBox="0 0 32 32" fill="none" xmlns="http://www.w3.org/2000/svg">
<rect width="32" height="32" fill="#F4F4F4"/>
<path d="M22.9898 14.2472L23.4467 24.4586C23.4533 24.5699 23.453 24.6737 23.4467 24.7704M22.9898 14.2472C22.9594 13.9903 22.734 13.3802 22.0761 12.9948H20.7056M22.9898 14.2472L25 21.7613L23.4467 24.7704M20.7056 12.9948C20.4863 3.43841 9.83249 6.73305 11.2944 12.9948M20.7056 12.9948V13.5728C20.7056 13.804 21.0102 13.926 21.1624 13.9582V15.4995H19.335V13.9582C19.7005 13.9582 19.7919 13.7013 19.7919 13.5728C19.8107 13.3748 19.8229 13.1821 19.8288 12.9948M8.91878 14.2472L8.46197 24.4586C8.45898 24.4932 8.45799 24.5322 8.45951 24.5746M8.91878 14.2472C8.94924 13.8297 9.21117 12.9948 10.0152 12.9948H11.2944M8.91878 14.2472L7 21.7613L8.45951 24.5746M11.2944 12.9948V13.7655C11.203 13.8297 10.7462 13.9582 10.7462 13.9582V14.0545V15.4995H12.5736V13.9582C12.3989 13.926 12.0448 13.804 12.0254 13.5728C12.0054 13.3751 11.9928 13.1824 11.9873 12.9948M8.45951 24.5746C8.47355 24.9652 8.70125 25.6524 9.55842 26H22.3503C22.7105 26 23.3832 25.7449 23.4467 24.7704M11.9873 12.9948C11.7972 6.50367 20.0487 6.09468 19.8288 12.9948M11.9873 12.9948H19.8288" stroke="#1B4B66" stroke-linecap="round" stroke-linejoin="round"/>
</svg>
