<svg width="32" height="32" viewBox="0 0 32 32" fill="none" xmlns="http://www.w3.org/2000/svg">
<rect width="32" height="32" fill="#F4F4F4"/>
<path d="M10.6308 24.9924C9.6743 24.9924 10.0089 24.3844 10.3199 23.9285L13.585 16.1769C13.7923 15.7716 13.8344 15.0377 13.274 14.353C12.6521 13.5931 12.2375 12.2251 12.1856 11.4652L11.8747 7.81739C11.8747 6.80485 12.636 6.80487 12.9631 7.81739C13.896 10.7052 14.8289 9.18533 16.2283 11.1612C17.4721 9.33732 19.027 9.6927 19.338 7.81739C19.5311 6.65286 20.5819 6.80486 20.5819 7.81739L20.4264 11.4652C20.4264 12.1947 19.7008 13.6944 19.338 14.353C18.9752 15.0116 18.8715 15.7716 19.027 16.1769L22.4477 24.3844C22.8209 25.114 22.4477 24.9924 21.9812 24.9924H10.6308Z" stroke="#1B4B66" stroke-linecap="round" stroke-linejoin="round"/>
</svg>
