<svg xmlns="http://www.w3.org/2000/svg" version="1.1" xmlns:xlink="http://www.w3.org/1999/xlink" xmlns:svgjs="http://svgjs.dev/svgjs" width="1000" height="1000"><style>
    #light-icon {
      display: inline;
    }
    #dark-icon {
      display: none;
    }

    @media (prefers-color-scheme: dark) {
      #light-icon {
        display: none;
      }
      #dark-icon {
        display: inline;
      }
    }
  </style><g id="light-icon"><svg xmlns="http://www.w3.org/2000/svg" version="1.1" xmlns:xlink="http://www.w3.org/1999/xlink" xmlns:svgjs="http://svgjs.dev/svgjs" width="1000" height="1000"><g clip-path="url(#SvgjsClipPath1354)"><rect width="1000" height="1000" fill="#ffffff"></rect><g transform="matrix(33.333333333333336,0,0,33.333333333333336,-5.684341886080802e-14,-5.684341886080802e-14)"><svg xmlns="http://www.w3.org/2000/svg" version="1.1" xmlns:xlink="http://www.w3.org/1999/xlink" xmlns:svgjs="http://svgjs.dev/svgjs" width="30" height="30"><svg width="30" height="30" viewBox="0 0 30 30" fill="none" xmlns="http://www.w3.org/2000/svg">
<path d="M16.7436 12.0803V26M16.7436 12.0803L10.4264 11.6946M16.7436 12.0803L19.346 24.4163M16.7436 26L5 25.1665L7.18675 11.4968L10.4264 11.6946M16.7436 26L18.0395 25.1665L19.4163 24.7497L19.346 24.4163M9.69746 13.1639C8.88755 19.832 14.071 19.9153 14.071 13.4139M10.4264 11.6946L10.9933 7.66268L21.1981 8.16279M21.1981 8.16279L21.7651 24.4163M21.1981 8.16279L25.1667 22.1658L23.3039 22.8326L21.7651 24.4163M21.7651 24.4163H19.346M13.828 8.8296C13.342 3.91185 18.5621 1.02791 18.3635 8.8296" stroke="#1B4B66" stroke-linejoin="round"></path>
</svg></svg></g></g><defs><clipPath id="SvgjsClipPath1354"><rect width="1000" height="1000" x="0" y="0" rx="350" ry="350"></rect></clipPath></defs></svg></g><g id="dark-icon"><svg xmlns="http://www.w3.org/2000/svg" version="1.1" xmlns:xlink="http://www.w3.org/1999/xlink" xmlns:svgjs="http://svgjs.dev/svgjs" width="1000" height="1000"><g clip-path="url(#SvgjsClipPath1355)"><rect width="1000" height="1000" fill="#ffffff"></rect><g transform="matrix(26.666666666666668,0,0,26.666666666666668,100,100)"><svg xmlns="http://www.w3.org/2000/svg" version="1.1" xmlns:xlink="http://www.w3.org/1999/xlink" xmlns:svgjs="http://svgjs.dev/svgjs" width="30" height="30"><svg width="30" height="30" viewBox="0 0 30 30" fill="none" xmlns="http://www.w3.org/2000/svg">
<path d="M16.7436 12.0803V26M16.7436 12.0803L10.4264 11.6946M16.7436 12.0803L19.346 24.4163M16.7436 26L5 25.1665L7.18675 11.4968L10.4264 11.6946M16.7436 26L18.0395 25.1665L19.4163 24.7497L19.346 24.4163M9.69746 13.1639C8.88755 19.832 14.071 19.9153 14.071 13.4139M10.4264 11.6946L10.9933 7.66268L21.1981 8.16279M21.1981 8.16279L21.7651 24.4163M21.1981 8.16279L25.1667 22.1658L23.3039 22.8326L21.7651 24.4163M21.7651 24.4163H19.346M13.828 8.8296C13.342 3.91185 18.5621 1.02791 18.3635 8.8296" stroke="#1B4B66" stroke-linejoin="round"></path>
</svg></svg></g></g><defs><clipPath id="SvgjsClipPath1355"><rect width="1000" height="1000" x="0" y="0" rx="350" ry="350"></rect></clipPath></defs></svg></g></svg>